<?xml version="1.0" encoding="UTF-8" standalone="no"?>
<!DOCTYPE svg PUBLIC "-//W3C//DTD SVG 1.1//EN" "http://www.w3.org/Graphics/SVG/1.1/DTD/svg11.dtd">
<svg width="100%" height="100%" viewBox="0 0 3508 2481" version="1.1" xmlns="http://www.w3.org/2000/svg" xmlns:xlink="http://www.w3.org/1999/xlink" xml:space="preserve" xmlns:serif="http://www.serif.com/" style="fill-rule:evenodd;clip-rule:evenodd;stroke-linejoin:round;stroke-miterlimit:2;">



    <rect id="L1_L1_Artboard1" x="0" y="0" width="3507.87" height="2480.32" style="fill:none;"/>
    <g id="L1_L1_L1_Artboard11" serif:id="L1_L1_Artboard1">
        <g id="L1_body-back-1" serif:id="L1_body back 1" transform="matrix(1,0,0,1,-4,0)">
            <g transform="matrix(7.16825,0.352239,-0.352239,7.16825,-929.52,-1010.79)">
                <path d="M581.06,321.34C581.8,327.55 575.34,333.42 566.65,334.45C557.96,335.48 536.82,332.88 536.08,326.67C535.34,320.46 555.29,312.99 563.98,311.97C572.67,310.95 580.33,315.13 581.06,321.34Z" style="fill:rgb(219,243,47);fill-rule:nonzero;"/>
            </g>
            <g transform="matrix(10.1911,1.18763,-1.18763,10.1911,-2493.5,-2227.93)">
                <path d="M590.61,252.32C590.98,255.43 587.75,258.36 583.4,258.87C579.05,259.38 568.48,258.08 568.12,254.98C567.75,251.87 577.73,248.14 582.07,247.63C586.41,247.12 590.24,249.21 590.61,252.32Z" style="fill:rgb(219,243,47);fill-rule:nonzero;"/>
            </g>
            <g transform="matrix(7.50272,0,0,7.56384,-1310.36,-895.1)">
                <path d="M392.422,156.436C468.622,154.086 529.32,191.14 551.55,202.48C578.05,216.01 584.57,225.66 582.71,233.51C579.31,247.85 529.807,245.947 529.657,251.057C529.507,256.167 574.01,263.08 572.01,284.44C570.01,305.81 517.316,307.24 513.636,314.47C509.966,321.7 551.801,325.8 551.826,347.33C551.837,356.813 491.59,383.44 410.84,390.58C289.157,401.339 252.353,304.746 258.463,257.046C262.853,222.866 296.142,159.406 392.422,156.436Z" style="fill:rgb(255,110,105);fill-rule:nonzero;"/>
            </g>
            <g transform="matrix(7.1769,0,0,7.1769,-1210.83,-806.795)">
                <path d="M393,161.16C469.2,158.81 529.32,191.14 551.55,202.48C578.05,216.01 584.57,225.66 582.71,233.51C579.31,247.85 518.09,244.72 517.94,249.83C517.79,254.94 574.01,263.08 572.01,284.44C570.01,305.81 506.06,309.78 502.38,317.01C498.71,324.24 547.78,336.68 549.01,351.37C549.8,360.82 491.59,383.44 410.84,390.58C289.157,401.339 260.487,304.431 266.597,256.731C270.987,222.551 296.72,164.13 393,161.16Z" style="fill:rgb(219,243,47);fill-rule:nonzero;"/>
            </g>
            <g id="L1_shadow" transform="matrix(7.61972,0,0,7.61972,-1314.87,-931.584)">
                <ellipse cx="402.24" cy="426.45" rx="84.39" ry="11.62" style="fill:rgb(219,243,47);"/>
            </g>
        </g>
    </g>



    <rect id="L2_L2_Artboard1" x="0" y="0" width="3507.87" height="2480.32" style="fill:none;"/>
    <g id="L2_L2_L2_Artboard11" serif:id="L2_L2_Artboard1">
        <g id="L2_body-front-6" serif:id="L2_body front 6" transform="matrix(7.00065,0,0,7.00065,-1154.98,-757.74)">
            <path d="M385.08,161.37C461.28,159.02 521.4,191.35 543.63,202.69C570.13,216.22 571.552,223.111 569.692,230.971C566.292,245.311 495.1,239 494.95,244.11C494.8,249.22 559.21,264.24 557.21,285.6C555.21,306.97 489.58,307.19 485.91,314.41C482.24,321.64 532.12,341.39 530.2,350.67C528.28,359.95 481.505,386.521 400.755,393.661C290.786,399.123 256.164,309.555 262.274,261.855C266.654,227.665 288.8,164.34 385.08,161.37Z" style="fill:rgb(0,36,232);fill-rule:nonzero;"/>
            <clipPath id="L2__clip1">
                <path d="M385.08,161.37C461.28,159.02 521.4,191.35 543.63,202.69C570.13,216.22 571.552,223.111 569.692,230.971C566.292,245.311 495.1,239 494.95,244.11C494.8,249.22 559.21,264.24 557.21,285.6C555.21,306.97 489.58,307.19 485.91,314.41C482.24,321.64 532.12,341.39 530.2,350.67C528.28,359.95 481.505,386.521 400.755,393.661C290.786,399.123 256.164,309.555 262.274,261.855C266.654,227.665 288.8,164.34 385.08,161.37Z" clip-rule="nonzero"/>
            </clipPath>
            <g clip-path="url(#L2__clip1)">
                <g transform="matrix(0.0965257,0,0,0.0678426,338.608,266.049)">
                    <rect x="495.745" y="730.31" width="1366.08" height="624.349" style="fill:rgb(255,110,105);"/>
                </g>
                <g transform="matrix(0.0965257,0,0,0.0678426,262.006,240.157)">
                    <rect x="495.745" y="730.31" width="1366.08" height="624.349" style="fill:rgb(49,235,247);"/>
                </g>
                <g transform="matrix(0.0965257,0,0,0.0678426,187.503,295.503)">
                    <rect x="495.745" y="730.31" width="1366.08" height="624.349" style="fill:rgb(229,246,111);"/>
                </g>
                <g transform="matrix(0.0965257,0,0,0.0678426,428.271,191.529)">
                    <rect x="495.745" y="730.31" width="1366.08" height="624.349" style="fill:rgb(255,169,107);"/>
                </g>
                <g transform="matrix(0.142844,0,0,0.142844,164.982,108.239)">
                    <rect x="495.745" y="730.31" width="1366.08" height="624.349" style="fill:rgb(0,11,106);"/>
                </g>
                <g transform="matrix(0.14288,0,0,0.0678426,310.341,120.04)">
                    <rect x="495.745" y="730.31" width="1366.08" height="624.349" style="fill:rgb(49,235,247);"/>
                </g>
                <g transform="matrix(0.14288,0,0,0.0678426,269.906,320.347)">
                    <rect x="495.745" y="730.31" width="1366.08" height="624.349" style="fill:rgb(58,244,117);"/>
                </g>
                <g transform="matrix(0.14288,0,0,0.0678426,170.133,109.682)">
                    <rect x="495.745" y="730.31" width="1366.08" height="624.349" style="fill:rgb(227,44,131);"/>
                </g>
                <g transform="matrix(0.134457,0,0,0.134457,197.255,102.243)">
                    <rect x="495.745" y="730.31" width="1366.08" height="624.349" style="fill:rgb(0,11,106);"/>
                </g>
            </g>
        </g>
    </g>



    <rect id="L3_L3_Artboard1" x="0" y="0" width="3507.87" height="2480.32" style="fill:none;"/>
    <g id="L3_L3_L3_Artboard11" serif:id="L3_L3_Artboard1">
        <g id="L3_eyes-4" serif:id="L3_eyes 4" transform="matrix(1,0,0,1,-6,0)">
            <g transform="matrix(6.86182,0,0,6.86182,-1074.52,-751.473)">
                <path id="L3_L3_XMLID_2_" d="M365.33,250.95C365.1,265.18 357.96,276.61 349.38,276.47C340.8,276.33 334.04,264.68 334.27,250.44C334.5,236.21 341.64,224.78 350.22,224.92C358.8,225.06 365.57,236.72 365.33,250.95Z" style="fill:url(#L3__Linear1);fill-rule:nonzero;"/>
                <clipPath id="L3__clip2">
                    <path id="L3_L3_L3_XMLID_2_1" serif:id="L3_L3_XMLID_2_" d="M365.33,250.95C365.1,265.18 357.96,276.61 349.38,276.47C340.8,276.33 334.04,264.68 334.27,250.44C334.5,236.21 341.64,224.78 350.22,224.92C358.8,225.06 365.57,236.72 365.33,250.95Z" clip-rule="nonzero"/>
                </clipPath>
                <g clip-path="url(#L3__clip2)">
                    <ellipse cx="360.533" cy="250.495" rx="16.684" ry="26.621" style="fill:rgb(255,199,78);"/>
                </g>
            </g>
            <g transform="matrix(6.86182,0,0,6.86182,-1074.52,-751.473)">
                <path id="L3_L3_XMLID_1_" d="M295.13,252.33C294.9,266.56 289.13,278.01 282.24,277.9C275.35,277.79 269.96,266.16 270.19,251.92C270.42,237.69 276.19,226.24 283.08,226.35C289.97,226.47 295.37,238.1 295.13,252.33Z" style="fill:url(#L3__Linear3);fill-rule:nonzero;"/>
                <clipPath id="L3__clip4">
                    <path id="L3_L3_L3_XMLID_1_1" serif:id="L3_L3_XMLID_1_" d="M295.13,252.33C294.9,266.56 289.13,278.01 282.24,277.9C275.35,277.79 269.96,266.16 270.19,251.92C270.42,237.69 276.19,226.24 283.08,226.35C289.97,226.47 295.37,238.1 295.13,252.33Z" clip-rule="nonzero"/>
                </clipPath>
                <g clip-path="url(#L3__clip4)">
                    <g transform="matrix(1,0,0,1,-66.4092,1.47242)">
                        <ellipse cx="360.533" cy="250.495" rx="16.684" ry="26.621" style="fill:rgb(255,199,78);"/>
                    </g>
                </g>
            </g>
            <g transform="matrix(0.674183,0.0352862,-0.0300606,0.574343,377.143,390.091)">
                <path d="M964.632,1193.83C964.632,1193.83 999.561,1259.16 1091.77,1248.88C1183.99,1238.6 1211.13,1182.11 1211.13,1182.11C1211.13,1182.11 1211,1289.03 1093.84,1292.67C976.674,1296.32 964.632,1193.83 964.632,1193.83Z" style="fill:rgb(228,47,157);"/>
            </g>
        </g>
    </g>
    <defs>
        <linearGradient id="L3__Linear1" x1="0" y1="0" x2="1" y2="0" gradientUnits="userSpaceOnUse" gradientTransform="matrix(3.15631e-15,-51.5465,51.5465,3.15631e-15,349.801,276.474)"><stop offset="0" style="stop-color:rgb(234,44,123);stop-opacity:1"/><stop offset="1" style="stop-color:rgb(143,40,140);stop-opacity:1"/></linearGradient>
        <linearGradient id="L3__Linear3" x1="0" y1="0" x2="1" y2="0" gradientUnits="userSpaceOnUse" gradientTransform="matrix(3.15626e-15,-51.5457,51.5457,3.15626e-15,282.663,277.899)"><stop offset="0" style="stop-color:rgb(234,44,123);stop-opacity:1"/><stop offset="1" style="stop-color:rgb(143,40,140);stop-opacity:1"/></linearGradient>
    </defs>



</svg>




